<?xml version="1.0" encoding="utf-8"?>
<!-- Generator: Adobe Illustrator 24.0.2, SVG Export Plug-In . SVG Version: 6.00 Build 0)  -->
<svg version="1.1" id="Layer_1" xmlns="http://www.w3.org/2000/svg" xmlns:xlink="http://www.w3.org/1999/xlink" x="0px" y="0px"
	 viewBox="0 0 954 261" style="enable-background:new 0 0 954 261;" xml:space="preserve">
<style type="text/css">
	.st0{enable-background:new    ;}
	.st1{fill:#FFFFFF;}
	.st2{font-family:'Roboto-Medium';}
	.st3{font-size:36px;}
</style>
<g class="st0">
	<path class="st1" d="M107.7,68c5.3,0,9.4,0.6,12.3,1.8c2.8,1.2,5.3,2.5,7.4,3.9c1.2,0.7,2.2,1.2,3,1.6c0.8,0.4,1.5,0.5,2.2,0.5
		c1,0,1.7-0.6,2.2-1.7s0.8-2.8,1.1-5h3.5c-0.1,1.8-0.2,4-0.4,6.4c-0.2,2.5-0.3,5.7-0.3,9.8c-0.1,4-0.1,9.3-0.1,15.9h-3.5
		c-0.3-4.9-1.4-9.7-3.3-14.4c-1.9-4.6-4.6-8.4-8.2-11.4c-3.6-2.9-8.2-4.4-13.7-4.4c-5.1,0-9.4,1.5-12.8,4.6S92,82.7,92,87.8
		c0,4.4,1.1,8.2,3.3,11.1c2.2,3,5.3,5.8,9.2,8.3c3.9,2.6,8.3,5.4,13.2,8.6c5,3.2,9.6,6.4,13.6,9.6c4,3.2,7.2,6.7,9.5,10.5
		c2.3,3.8,3.5,8.5,3.5,13.9c0,6.6-1.5,12-4.6,16.3s-7.2,7.5-12.3,9.6s-10.8,3.2-17,3.2c-5.7,0-10.1-0.6-13.5-1.8
		c-3.3-1.2-6.2-2.5-8.5-3.8c-2.2-1.4-3.9-2.1-5.1-2.1c-1,0-1.7,0.6-2.2,1.7c-0.5,1.1-0.8,2.8-1.1,5h-3.5c0.2-2.2,0.3-4.8,0.4-7.8
		c0-3,0.1-6.9,0.2-11.7c0-4.8,0.1-10.9,0.1-18.3h3.5c0.4,6.3,1.5,12.1,3.4,17.6s4.7,9.8,8.6,13.1s9.1,4.9,15.5,4.9
		c3.4,0,6.6-0.7,9.5-2s5.3-3.4,7.1-6.2c1.8-2.8,2.7-6.5,2.7-10.9c0-4.1-1-7.8-3-10.9c-2-3.1-4.7-6-8.2-8.7s-7.5-5.4-12.2-8.3
		c-4.7-3-9.2-6.1-13.3-9.1c-4.1-3-7.4-6.6-9.9-10.6s-3.7-8.8-3.7-14.4c0-6.2,1.4-11.2,4.3-15.1s6.6-6.9,11.2-8.8
		C97.5,69,102.5,68,107.7,68z"/>
	<path class="st1" d="M182,97.2V190c0,4.4,1.3,7.4,3.8,8.9s6,2.3,10.4,2.3v3.2c-2.3-0.1-5.6-0.2-9.7-0.4c-4.1-0.2-8.6-0.2-13.3-0.2
		c-3.3,0-6.6,0.1-9.8,0.2c-3.2,0.2-5.7,0.3-7.4,0.4v-3.2c3.5,0,6-0.7,7.5-2c1.5-1.4,2.2-3.9,2.2-7.6v-76.1c0-4.5-0.8-7.9-2.3-10.1
		s-4.4-3.3-8.6-3.3v-3.2c3.2,0.3,6.4,0.5,9.4,0.5c3.3,0,6.5-0.2,9.5-0.5C176.7,98.5,179.5,97.9,182,97.2z M206.1,96.8
		c5.2,0,10,1.4,14.2,4.3s7.5,7.1,9.9,12.6c2.4,5.6,3.6,12.5,3.6,20.7c0,6.1-0.7,11.8-2.1,17.2c-1.4,5.4-3.6,10.1-6.4,14.2
		c-2.9,4.1-6.5,7.3-10.8,9.7s-9.5,3.6-15.4,3.6c-4.4,0-8.4-1-11.7-2.9c-3.4-1.9-5.8-4.3-7.2-7.3l1.5-2.1c1.3,2.5,3.2,4.6,5.5,6.2
		c2.4,1.6,5.3,2.4,8.9,2.4c5.2,0,9.4-1.7,12.3-5.1c3-3.4,5.1-8,6.3-13.8s1.8-12.4,1.8-19.8c0-8.3-0.6-15-1.8-20.1s-3-8.8-5.4-11.2
		c-2.4-2.4-5.4-3.6-8.8-3.6c-4.5,0-8.7,1.8-12.3,5.4c-3.7,3.6-5.9,9.1-6.7,16.3l-1.5-3.2c1.3-7.6,4.4-13.4,9.2-17.6
		C193.7,98.9,199.4,96.8,206.1,96.8z"/>
	<path class="st1" d="M265.9,178.1c-4.2,0-7.9-0.8-10.9-2.4c-3-1.6-5.3-3.8-6.8-6.7c-1.5-2.8-2.3-6.1-2.3-9.7c0-4.4,1-8,3-10.8
		s4.6-5,7.8-6.7c3.2-1.7,6.6-3.2,10.1-4.3c3.6-1.2,7-2.3,10.1-3.3c3.2-1.1,5.8-2.3,7.9-3.7s3.1-3.3,3.1-5.6v-10.3
		c0-3.6-0.6-6.5-1.7-8.7c-1.2-2.2-2.7-3.7-4.7-4.6s-4.3-1.4-7-1.4c-2.3,0-4.8,0.3-7.4,1s-4.7,1.9-6.2,3.9c2.2,0.6,4.1,1.8,5.5,3.6
		c1.5,1.8,2.2,4,2.2,6.6c0,2.8-0.9,5-2.8,6.7c-1.9,1.6-4.2,2.4-7,2.4c-3.1,0-5.4-1-7-3c-1.5-2-2.3-4.3-2.3-6.9c0-2.7,0.7-4.9,2-6.7
		c1.4-1.7,3.2-3.3,5.4-4.8c2.4-1.6,5.5-3,9.3-4.1s8-1.7,12.6-1.7c4.3,0,8.1,0.5,11.3,1.4c3.2,1,5.8,2.5,7.9,4.6
		c2.5,2.3,4.2,5.2,5,8.7s1.2,7.7,1.2,12.6V166c0,2.5,0.3,4.3,1,5.4c0.7,1.1,1.7,1.6,3.3,1.6c1,0,2-0.3,3-0.8s2.1-1.3,3.4-2.3
		l1.5,2.6c-2.1,1.7-4.3,3.1-6.4,4.1c-2.2,1-4.9,1.5-8.3,1.5c-3.2,0-5.9-0.5-7.9-1.5s-3.5-2.5-4.5-4.4s-1.4-4.3-1.4-7.1
		c-2.6,4.2-5.8,7.5-9.4,9.7C275,176.9,270.7,178.1,265.9,178.1z M273.2,170.8c2.8,0,5.5-0.8,7.9-2.4c2.5-1.6,4.8-4,6.9-7.3V131
		c-1.1,1.6-2.7,3-4.8,4.2c-2.1,1.2-4.4,2.3-6.8,3.6c-2.4,1.2-4.7,2.6-6.9,4.2c-2.2,1.6-4,3.6-5.4,6s-2.1,5.5-2.1,9.2
		c0,3.9,1,7,3,9.3C267,169.7,269.7,170.8,273.2,170.8z"/>
	<path class="st1" d="M359.5,96.8c3.4,0,6.7,0.4,9.8,1.3c3.1,0.9,5.9,2,8.2,3.6c2.4,1.5,4.3,3.3,5.5,5.4c1.3,2.1,1.9,4.4,1.9,7
		c0,3-0.9,5.4-2.6,7.1s-3.9,2.6-6.7,2.6c-2.7,0-5-0.8-6.8-2.3s-2.7-3.7-2.7-6.5c0-2.6,0.8-4.8,2.3-6.4s3.3-2.7,5.3-3.3
		c-0.9-1.5-2.5-2.8-4.8-3.9s-4.7-1.6-7.3-1.6c-2.7,0-5.3,0.7-7.8,2.1s-4.7,3.6-6.6,6.5s-3.5,6.7-4.6,11.4
		c-1.2,4.6-1.7,10.2-1.7,16.8c0,8.5,1,15.2,3,20.2s4.6,8.6,7.8,10.7c3.2,2.1,6.7,3.2,10.4,3.2c2.4,0,4.9-0.5,7.5-1.4s5-2.4,7.4-4.5
		s4.5-5,6.3-8.6l2.9,1.1c-1.1,3.3-2.9,6.7-5.2,10.1c-2.4,3.4-5.5,6.3-9.3,8.5s-8.5,3.3-14.1,3.3c-6.4,0-12.1-1.6-17.3-4.7
		s-9.2-7.7-12.3-13.7c-3-6-4.5-13.3-4.5-22c0-8.5,1.5-15.9,4.6-22.2c3.1-6.3,7.3-11.2,12.8-14.6C346.3,98.5,352.5,96.8,359.5,96.8z"
		/>
	<path class="st1" d="M432.6,96.8c8.9,0,15.8,2.7,20.9,8c5,5.4,7.6,13.8,7.6,25.4h-52.2l-0.3-2.9H445c0.1-4.9-0.3-9.5-1.2-13.7
		c-0.9-4.2-2.3-7.5-4.2-10.1c-1.9-2.5-4.4-3.8-7.6-3.8c-4.3,0-8.1,2.3-11.3,6.9c-3.2,4.6-5.1,11.9-5.8,22l0.5,0.8
		c-0.1,1.4-0.2,3-0.3,4.6c-0.1,1.7-0.2,3.3-0.2,4.9c0,7,1.1,12.8,3.2,17.6c2.1,4.7,4.9,8.3,8.3,10.7s6.9,3.6,10.4,3.6
		c2.7,0,5.4-0.4,7.9-1.3c2.6-0.9,5-2.3,7.3-4.4c2.3-2.1,4.4-4.9,6.2-8.6l3,1.2c-1.2,3.4-3.1,6.8-5.6,10.1s-5.8,6-9.7,8.1
		c-3.9,2.1-8.5,3.1-13.8,3.1c-7.1,0-13.2-1.6-18.5-4.8c-5.2-3.2-9.3-7.7-12.1-13.7c-2.8-6-4.2-13-4.2-21.2c0-9,1.5-16.7,4.4-23
		c2.9-6.4,7-11.2,12.3-14.6C419.5,98.5,425.6,96.8,432.6,96.8z"/>
	<path class="st1" d="M553.4,69.8c18.7,0,32.5,4.5,41.6,13.5s13.6,22,13.6,38.8c0,11-2.2,20.6-6.7,28.8
		c-4.4,8.2-10.9,14.6-19.3,19.1c-8.4,4.5-18.6,6.8-30.7,6.8c-1.5,0-3.6,0-6.1-0.2c-2.6-0.1-5.2-0.2-7.9-0.2s-5.2-0.1-7.4-0.1
		c-3.8,0-7.6,0-11.3,0.1s-6.7,0.2-9,0.4v-3c3.4-0.2,6-0.6,7.7-1.2c1.7-0.6,2.9-1.8,3.4-3.6c0.6-1.8,0.8-4.5,0.8-8.2V85.9
		c0-3.7-0.3-6.5-0.8-8.3c-0.6-1.8-1.7-3-3.5-3.6c-1.8-0.7-4.3-1-7.6-1.1v-3c2.3,0.1,5.3,0.2,9,0.4c3.7,0.2,7.3,0.2,11,0.1
		c3.6-0.1,7.7-0.2,12.2-0.3C546.9,69.9,550.5,69.8,553.4,69.8z M550.8,72.5c-4.6,0-7.7,0.9-9.1,2.6c-1.4,1.7-2.1,5.2-2.1,10.4v75.7
		c0,5.2,0.7,8.7,2.2,10.4s4.5,2.6,9.2,2.6c10.2,0,18.1-2,23.8-6s9.6-9.8,12-17.5c2.3-7.7,3.5-17,3.5-28c0-11.3-1.3-20.7-3.8-28.1
		s-6.6-13-12.3-16.7C568.3,74.4,560.6,72.5,550.8,72.5z"/>
	<path class="st1" d="M641,178.1c-4.2,0-7.9-0.8-10.9-2.4c-3-1.6-5.3-3.8-6.8-6.7c-1.5-2.8-2.3-6.1-2.3-9.7c0-4.4,1-8,3-10.8
		s4.6-5,7.8-6.7s6.6-3.2,10.1-4.3c3.6-1.2,7-2.3,10.1-3.3c3.2-1.1,5.8-2.3,7.9-3.7c2.1-1.4,3.1-3.3,3.1-5.6v-10.3
		c0-3.6-0.6-6.5-1.7-8.7c-1.2-2.2-2.7-3.7-4.7-4.6s-4.3-1.4-7-1.4c-2.3,0-4.8,0.3-7.4,1c-2.6,0.7-4.7,1.9-6.2,3.9
		c2.2,0.6,4.1,1.8,5.5,3.6c1.5,1.8,2.2,4,2.2,6.6c0,2.8-0.9,5-2.8,6.7c-1.9,1.6-4.2,2.4-7,2.4c-3.1,0-5.5-1-7-3s-2.3-4.3-2.3-6.9
		c0-2.7,0.7-4.9,2-6.7c1.4-1.7,3.2-3.3,5.4-4.8c2.4-1.6,5.5-3,9.3-4.1s8-1.7,12.6-1.7c4.3,0,8.1,0.5,11.3,1.4c3.2,1,5.8,2.5,7.9,4.6
		c2.5,2.3,4.2,5.2,5,8.7s1.2,7.7,1.2,12.6V166c0,2.5,0.3,4.3,1,5.4c0.7,1.1,1.7,1.6,3.3,1.6c1,0,2-0.3,3-0.8s2.1-1.3,3.4-2.3
		l1.5,2.6c-2.1,1.7-4.3,3.1-6.4,4.1c-2.2,1-4.9,1.5-8.3,1.5c-3.2,0-5.9-0.5-7.9-1.5s-3.5-2.5-4.5-4.4s-1.4-4.3-1.4-7.1
		c-2.6,4.2-5.8,7.5-9.4,9.7C650.1,176.9,645.9,178.1,641,178.1z M648.3,170.8c2.8,0,5.5-0.8,7.9-2.4c2.5-1.6,4.8-4,6.9-7.3V131
		c-1.1,1.6-2.7,3-4.8,4.2s-4.4,2.3-6.8,3.6c-2.4,1.2-4.7,2.6-6.9,4.2c-2.2,1.6-4,3.6-5.4,6s-2.1,5.5-2.1,9.2c0,3.9,1,7,3,9.3
		C642.1,169.7,644.9,170.8,648.3,170.8z"/>
	<path class="st1" d="M723.4,97.2v65.7c0,4.2,0.8,7.1,2.5,8.6s4.5,2.3,8.4,2.3v3.2c-1.7-0.1-4.4-0.2-7.9-0.4
		c-3.6-0.2-7.2-0.2-11-0.2c-3.5,0-7.2,0.1-10.9,0.2c-3.7,0.2-6.5,0.3-8.3,0.4v-3.2c3.9,0,6.7-0.8,8.4-2.3s2.5-4.4,2.5-8.6v-47.5
		c0-4.5-0.8-7.9-2.3-10.1s-4.4-3.3-8.6-3.3v-3.2c3.2,0.3,6.4,0.5,9.4,0.5c3.4,0,6.6-0.2,9.6-0.5C718.1,98.5,720.8,97.9,723.4,97.2z
		 M714.3,60.7c3.1,0,5.8,1,7.9,3c2.1,2,3.2,4.4,3.2,7.3s-1.1,5.4-3.2,7.3c-2.1,2-4.7,3-7.9,3c-3.1,0-5.8-1-7.9-3
		c-2.1-2-3.2-4.4-3.2-7.3s1.1-5.4,3.2-7.3C708.5,61.7,711.2,60.7,714.3,60.7z"/>
	<path class="st1" d="M857.6,98.9v3c-1.9,0.3-3.7,1.3-5.3,3s-3.2,4.5-4.7,8.6L824,176.7l-3.6,3.6l-29.5-69.8
		c-1.9-3.9-3.8-6.3-5.5-7.2c-1.8-0.9-3.3-1.3-4.5-1.3v-3.2c2.5,0.3,5.2,0.5,8,0.7s5.8,0.2,8.8,0.2c3.4,0,6.9-0.1,10.4-0.3
		c3.5-0.2,6.7-0.4,9.8-0.6v3.2c-2.4,0-4.6,0.2-6.4,0.5c-1.9,0.4-3.1,1.3-3.6,2.9c-0.6,1.6-0.1,4.2,1.4,7.9l18.8,46.2L827,160
		l15.3-40.6c1.5-4,2.1-7.3,1.8-9.8s-1.4-4.3-3.2-5.6c-1.8-1.3-4.5-2-8-2.2v-3c1.7,0.1,3.3,0.2,4.8,0.2c1.5,0.1,2.9,0.1,4.3,0.2
		c1.4,0.1,2.8,0.1,4.2,0.1c2.2,0,4.3,0,6.3-0.2C854.4,99.1,856.1,99,857.6,98.9z M824,176.7l-5.5,14.2c-1,2.5-2,4.6-3.1,6.4
		c-1.1,1.7-2.2,3.1-3.4,4.2c-1.5,1.4-3.4,2.4-5.6,3c-2.2,0.6-4.4,0.9-6.7,0.9c-2.1,0-4.1-0.4-6-1.1c-1.9-0.8-3.4-1.9-4.6-3.4
		s-1.8-3.4-1.8-5.6c0-2.6,0.9-4.7,2.6-6.4c1.7-1.6,4-2.4,6.8-2.4c2.5,0,4.6,0.7,6.4,2c1.7,1.4,2.6,3.4,2.6,6c0,1.8-0.5,3.4-1.4,4.7
		c-1,1.3-2.2,2.3-3.7,3c0.3,0.1,0.6,0.2,0.9,0.2s0.6,0,0.8,0c2.8,0,5.3-0.9,7.6-2.8c2.2-1.9,4.1-4.9,5.6-9l5.5-14.5L824,176.7z"/>
	<path class="st1" d="M767.9,58.3v104.6c0,4.2,0.8,7.1,2.5,8.6s4.5,2.3,8.4,2.3v3.2c-1.7-0.1-4.4-0.2-8-0.4s-7.3-0.2-10.9-0.2
		s-7.3,0.1-11,0.2c-3.7,0.2-6.4,0.3-8.3,0.4v-3.2c3.9,0,6.7-0.8,8.4-2.3s2.5-4.4,2.5-8.6V76.5c0-4.5-0.8-7.9-2.3-10.1
		s-4.4-3.3-8.6-3.3V60c3.2,0.3,6.4,0.5,9.4,0.5c3.3,0,6.5-0.2,9.5-0.5C762.6,59.5,765.3,59,767.9,58.3z"/>
</g>
<text transform="matrix(1 0 0 1 492.165 214.2871)" class="st1 st2 st3">by Spacestagram</text>
</svg>
